<svg width="290" height="154" viewBox="0 0 290 154" fill="none" xmlns="http://www.w3.org/2000/svg" class="w-[332px] h-[176px]"><path d="M240.17 55.7126H229.268V93.4466H240.17V55.7126Z" fill="#F2F2F2"></path><path d="M247.371 86.3483L220.856 54.8069L167.634 55.2934L135.348 86.7383L136 87.1575H135.767V152.563H247.299V87.1575L247.371 86.3483Z" fill="#F2F2F2"></path><path d="M220.882 54.874L187.758 93.7061V152.563H247.297V86.3189L220.882 54.874Z" fill="#E6E6E6"></path><path d="M223.818 120.014H211.659V130.761H223.818V120.014Z" fill="#414045"></path><path d="M223.818 101.413H211.659V111.989H223.818V101.413Z" fill="#414045"></path><path d="M223.818 120.014H211.659V130.761H223.818V120.014Z" fill="white"></path><path d="M223.818 101.413H211.659V111.989H223.818V101.413Z" fill="white"></path><path d="M169.781 117.163H157.621V127.91H169.781V117.163Z" fill="white"></path><path d="M169.781 98.561H157.621V109.138H169.781V98.561Z" fill="white"></path><path d="M152.082 23.1472H137.515V73.569H152.082V23.1472Z" fill="#F2F2F2"></path><path d="M161.702 64.0835L126.272 21.937L55.1539 22.5869L12.0125 64.6051L12.8839 65.1653H12.5727V152.563H161.607V65.1653L161.702 64.0835Z" fill="#F2F2F2"></path><path d="M126.309 22.0266L82.0471 73.9158V152.563H161.607V64.0448L126.309 22.0266Z" fill="#E6E6E6"></path><path d="M130.231 109.07H113.983V123.431H130.231V109.07Z" fill="#414045"></path><path d="M130.231 84.2136H113.983V98.3464H130.231V84.2136Z" fill="#414045"></path><path d="M130.231 109.07H113.983V123.431H130.231V109.07Z" fill="white"></path><path d="M130.231 84.2136H113.983V98.3464H130.231V84.2136Z" fill="white"></path><path d="M58.0234 105.26H41.7753V119.62H58.0234V105.26Z" fill="white"></path><path d="M58.0234 80.4031H41.7753V94.5358H58.0234V80.4031Z" fill="white"></path><path d="M273.531 151.576H0.101562V153.031H273.531V151.576Z" fill="#414045"></path><path d="M54.9981 138.949C60.8072 138.949 65.5165 129.341 65.5165 117.488C65.5165 105.636 60.8072 96.0278 54.9981 96.0278C49.1889 96.0278 44.4796 105.636 44.4796 117.488C44.4796 129.341 49.1889 138.949 54.9981 138.949Z" fill="#939295"></path><path d="M55.9699 152.616C51.7572 127.342 55.9275 102.159 55.9701 101.908L56.7896 102.047C56.7472 102.297 52.6008 127.347 56.7898 152.479L55.9699 152.616Z" fill="white"></path><path d="M64.2586 112.874L54.7471 117.961L55.1391 118.694L64.6507 113.607L64.2586 112.874Z" fill="white"></path><path d="M45.1005 115.422L44.7083 116.155L54.2186 121.245L54.6109 120.512L45.1005 115.422Z" fill="white"></path><path d="M29.7247 126.366C41.0868 126.366 50.2976 107.573 50.2976 84.3914C50.2976 61.2097 41.0868 42.4172 29.7247 42.4172C18.3626 42.4172 9.15186 61.2097 9.15186 84.3914C9.15186 107.573 18.3626 126.366 29.7247 126.366Z" fill="#451DA0"></path><path d="M32.0161 153.031C23.7875 103.663 31.9331 54.4752 32.0163 53.9841L32.8358 54.1229C32.7528 54.6128 24.6311 103.669 32.836 152.895L32.0161 153.031Z" fill="#878596"></path><path d="M48.0266 75.7158L29.4227 85.666L29.8148 86.399L48.4187 76.4487L48.0266 75.7158Z" fill="#878596"></path><path d="M10.1805 80.7003L9.78821 81.4331L28.3893 91.3885L28.7816 90.6556L10.1805 80.7003Z" fill="#878596"></path><path d="M78.451 116.567C93.9991 116.567 106.603 90.8506 106.603 59.1283C106.603 27.406 93.9991 1.68994 78.451 1.68994C62.9029 1.68994 50.2987 27.406 50.2987 59.1283C50.2987 90.8506 62.9029 116.567 78.451 116.567Z" fill="#451DA0"></path><path d="M81.7376 153.031C70.4816 85.5002 81.624 18.2156 81.7378 17.5439L82.5573 17.6827C82.4436 18.3532 71.3252 85.5054 82.5575 152.895L81.7376 153.031Z" fill="#878596"></path><path d="M103.565 47.3912L78.1072 61.0073L78.4992 61.7403L103.957 48.1242L103.565 47.3912Z" fill="#878596"></path><path d="M51.6312 54.2122L51.2389 54.9451L76.6932 68.5679L77.0854 67.835L51.6312 54.2122Z" fill="#878596"></path><path d="M213.225 26.7637L216.553 24.1025C213.968 23.8173 212.906 25.227 212.471 26.3428C210.451 25.5043 208.253 26.6032 208.253 26.6032L214.911 29.0201C214.575 28.123 213.99 27.3403 213.225 26.7637Z" fill="#414045"></path><path d="M131.895 3.27004L135.222 0.608802C132.637 0.323623 131.575 1.73335 131.14 2.84916C129.121 2.01061 126.922 3.10957 126.922 3.10957L133.58 5.52643C133.244 4.62937 132.66 3.84665 131.895 3.27004Z" fill="#414045"></path><path d="M102.466 148.059C101.581 148.059 100.712 148.292 99.9463 148.735C99.1686 148.032 98.2035 147.57 97.1681 147.404C96.1328 147.239 95.0717 147.378 94.1136 147.804C93.1556 148.23 92.3418 148.924 91.7711 149.804C91.2004 150.683 90.8973 151.71 90.8986 152.758H107.508C107.417 151.482 106.847 150.289 105.911 149.417C104.976 148.545 103.744 148.06 102.466 148.059Z" fill="#414045"></path><path d="M188.857 148.059C187.972 148.059 187.103 148.292 186.337 148.735C185.56 148.032 184.595 147.57 183.559 147.404C182.524 147.239 181.463 147.378 180.505 147.804C179.547 148.23 178.733 148.924 178.162 149.804C177.592 150.683 177.289 151.71 177.29 152.758H193.899C193.809 151.482 193.238 150.289 192.302 149.417C191.367 148.545 190.136 148.06 188.857 148.059Z" fill="#414045"></path><path d="M170.627 136.195H122.708V137.741H130.181V152.425H131.727V137.741H160.835V152.425H162.381V137.741H170.627V136.195Z" fill="#414045"></path><path d="M170.722 131.571H122.803V133.116H170.722V131.571Z" fill="#414045"></path><path d="M170.722 127.707H122.803V129.252H170.722V127.707Z" fill="#414045"></path><path d="M170.722 123.843H122.803V125.388H170.722V123.843Z" fill="#414045"></path><path d="M245.451 136.195H197.532V137.741H205.006V152.425H206.551V137.741H235.659V152.425H237.205V137.741H245.451V136.195Z" fill="#414045"></path><path d="M245.545 131.571H197.626V133.116H245.545V131.571Z" fill="#414045"></path><path d="M245.545 127.707H197.626V129.252H245.545V127.707Z" fill="#414045"></path><path d="M245.545 123.843H197.626V125.388H245.545V123.843Z" fill="#414045"></path><path d="M243.326 138.949C249.135 138.949 253.844 129.341 253.844 117.488C253.844 105.636 249.135 96.0278 243.326 96.0278C237.517 96.0278 232.807 105.636 232.807 117.488C232.807 129.341 237.517 138.949 243.326 138.949Z" fill="#939295"></path><path d="M242.355 152.616C246.568 127.342 242.398 102.159 242.355 101.908L241.535 102.047C241.578 102.297 245.724 127.347 241.535 152.479L242.355 152.616Z" fill="white"></path><path d="M234.066 112.874L233.674 113.607L243.185 118.694L243.577 117.961L234.066 112.874Z" fill="white"></path><path d="M253.223 115.422L243.713 120.512L244.105 121.245L253.615 116.155L253.223 115.422Z" fill="white"></path><path d="M268.599 126.366C279.961 126.366 289.172 107.573 289.172 84.3914C289.172 61.2097 279.961 42.4172 268.599 42.4172C257.237 42.4172 248.026 61.2097 248.026 84.3914C248.026 107.573 257.237 126.366 268.599 126.366Z" fill="#451DA0"></path><path d="M266.308 153.031C274.536 103.663 266.391 54.4752 266.307 53.9841L265.488 54.1229C265.571 54.6128 273.693 103.669 265.488 152.895L266.308 153.031Z" fill="#878596"></path><path d="M250.299 75.7158L249.907 76.4487L268.511 86.399L268.903 85.666L250.299 75.7158Z" fill="#878596"></path><path d="M288.144 80.7004L269.543 90.6558L269.935 91.3886L288.536 81.4332L288.144 80.7004Z" fill="#878596"></path></svg>