<svg xmlns="http://www.w3.org/2000/svg" xmlns:xlink="http://www.w3.org/1999/xlink" viewBox="0 0 291.65 300"><defs><style>.cls-1{isolation:isolate;}.cls-2{fill:#f4b400;}.cls-3,.cls-5{mix-blend-mode:screen;}.cls-3{fill:url(#radial-gradient);}.cls-4{fill:url(#linear-gradient);}.cls-5{fill:url(#radial-gradient-2);}.cls-6{fill:url(#linear-gradient-2);}.cls-10,.cls-11,.cls-12,.cls-7,.cls-8,.cls-9{mix-blend-mode:multiply;}.cls-7{fill:url(#linear-gradient-3);}.cls-8{fill:url(#linear-gradient-4);}.cls-9{fill:url(#linear-gradient-5);}.cls-10{fill:url(#linear-gradient-6);}.cls-11{fill:url(#linear-gradient-7);}.cls-12{fill:url(#linear-gradient-8);}</style><radialGradient id="radial-gradient" cx="125.35" cy="218.23" r="134.2" gradientTransform="translate(0 0)" gradientUnits="userSpaceOnUse"><stop offset="0" stop-color="#fff"/><stop offset="0.16" stop-color="#dbdbdb"/><stop offset="0.53" stop-color="gray"/><stop offset="1"/></radialGradient><linearGradient id="linear-gradient" x1="9.26" y1="273.11" x2="216.79" y2="203.4" gradientUnits="userSpaceOnUse"><stop offset="0" stop-color="#00a0f4"/><stop offset="1" stop-color="#4259f4"/></linearGradient><radialGradient id="radial-gradient-2" cx="115.37" cy="253.38" r="97.26" gradientTransform="translate(3.47 -2.52) rotate(0.15)" xlink:href="#radial-gradient"/><linearGradient id="linear-gradient-2" x1="43.3" y1="271.82" x2="144.69" y2="54.78" gradientUnits="userSpaceOnUse"><stop offset="0" stop-color="#f90000"/><stop offset="1" stop-color="#ac2300"/></linearGradient><linearGradient id="linear-gradient-3" x1="124.28" y1="-39.84" x2="121.94" y2="165.93" gradientUnits="userSpaceOnUse"><stop offset="0" stop-color="#68a7a6"/><stop offset="0.25" stop-color="#95c1c1"/><stop offset="0.6" stop-color="#cee2e2"/><stop offset="0.86" stop-color="#f2f7f7"/><stop offset="1" stop-color="#fff"/></linearGradient><linearGradient id="linear-gradient-4" x1="124.08" y1="-22.83" x2="122.13" y2="149.11" xlink:href="#linear-gradient-3"/><linearGradient id="linear-gradient-5" x1="-30.25" y1="264.95" x2="137.13" y2="178.39" xlink:href="#linear-gradient-3"/><linearGradient id="linear-gradient-6" x1="-33.88" y1="266.82" x2="108.08" y2="193.41" xlink:href="#linear-gradient-3"/><linearGradient id="linear-gradient-7" x1="237.12" y1="285.28" x2="162.15" y2="184.26" xlink:href="#linear-gradient-3"/><linearGradient id="linear-gradient-8" x1="240.1" y1="279.67" x2="169.68" y2="184.77" xlink:href="#linear-gradient-3"/></defs><g class="cls-1"><g id="Layer_2" data-name="Layer 2"><g id="Layer_1-2" data-name="Layer 1"><g id="Logo"><path id="Shape" class="cls-2" d="M99,63.37,123.27,11.3A19.55,19.55,0,0,1,157.6,9.24L288.71,222.7a19.55,19.55,0,0,1,1.11,18.56l-23.28,50a15,15,0,0,1-26.43,1.59Z"/><path id="Light" class="cls-3" d="M242.23,291.74,101.16,62.23,125.4,10.16a19.25,19.25,0,0,1,7.37-8.36,19.21,19.21,0,0,0-9.5,9.5L99,63.37,240.11,292.89a15.07,15.07,0,0,0,21.09,4.64A15,15,0,0,1,242.23,291.74Z"/><path id="Shape-2" data-name="Shape" class="cls-4" d="M173.39,184.34,23.53,225.63,1.87,272.18c-7,15.1,6.85,31.51,22.92,27.09L212.28,247.6Z"/><polygon id="Light-2" data-name="Light" class="cls-5" points="174.46 186.19 173.39 184.34 23.48 225.43 22.25 228.06 174.46 186.19"/><polygon id="Shape-3" data-name="Shape" class="cls-6" points="23.54 225.63 118.78 199.38 146.29 140.25 99.04 63.37 23.54 225.63"/><polygon id="Shadow" class="cls-7" points="99.04 63.37 146.29 140.25 136.28 161.76 99.04 63.37"/><polygon id="Shadow-2" data-name="Shadow" class="cls-8" points="99.04 63.37 146.29 140.25 143.74 145.74 99.04 63.37"/><polygon id="Shadow-3" data-name="Shadow" class="cls-9" points="23.54 225.63 118.78 199.38 131.54 171.97 23.54 225.63"/><polygon id="Shadow-4" data-name="Shadow" class="cls-10" points="23.54 225.63 118.78 199.38 121.77 192.95 23.54 225.63"/><polygon id="Shadow-5" data-name="Shadow" class="cls-11" points="212.28 247.6 154.82 189.45 173.39 184.34 212.28 247.6"/><polygon id="Shadow-6" data-name="Shadow" class="cls-12" points="212.28 247.6 167.9 185.85 173.39 184.34 212.28 247.6"/></g></g></g></g></svg>